# xmcd
# 
# Track frame offsets:
#     150
#     6700
#     23240
#     27502
#     49190
#     67782
#     89422
#     112927
#     132230
#     154472
#     177382
#     195402
#     220295
#     242807
#     263257
#     281852
# 
# Disc length: 4202
# 
# Revision: 83268862
# Processed by: cddbd v1.5.1PL2 Copyright (c) Steve Scherf et al.
# Submitted via: BonkEnc v1.0beta3
# 
DISCID=e4106810
DTITLE=DMX - Flesh Of My Flesh Blood Of My Blood
DYEAR=1998
DGENRE=Hip-Hop
TTITLE0=My Niggas (Skit)
TTITLE1=Bring Your Whole Crew
TTITLE2=Pac Man (Skit)
TTITLE3=Ain't No Way
TTITLE4=We Don't Give A Fuck (Featuring Jadakiss and Styles)
TTITLE5=Keep Your Shit The Hardest
TTITLE6=Coming From (feat. Mary J. Blige)
TTITLE7=It's All Good
TTITLE8=The Omen
TTITLE9=Slippin'
TTITLE10=No Love 4 Me (feat. Swizz Beatz and Drag-On)
TTITLE11=Dogs For Life
TTITLE12=Blackout (feat. LOX and Jay-Z)
TTITLE13=Flesh Of My Flesh, Blood Of My Blood
TTITLE14=Heat
TTITLE15=Ready to Meet Him
EXTD=
EXTT0=
EXTT1=
EXTT2=
EXTT3=
EXTT4=
EXTT5=
EXTT6=
EXTT7=
EXTT8=
EXTT9=
EXTT10=
EXTT11=
EXTT12=
EXTT13=
EXTT14=
EXTT15=
PLAYORDER=
